<svg width="112" height="24" viewBox="0 0 112 24" fill="none" xmlns="http://www.w3.org/2000/svg">
<path fill-rule="evenodd" clip-rule="evenodd" d="M23.9201 10.6004C23.6413 8.19538 22.6434 5.9308 21.0571 4.10344C19.4708 2.27608 17.3702 0.971187 15.0305 0.35977C17.0485 1.02063 18.8409 2.23503 20.2041 3.86497C21.5672 5.49491 22.4464 7.47502 22.7417 9.58028C20.2865 7.56893 16.3157 5.67532 12.5705 6.85162C14.2193 8.34992 14.6105 10.2159 12.8621 11.8223C14.7677 8.64069 10.9781 7.23611 9.08208 5.77385C7.55088 4.59155 8.46888 3.13049 9.65088 2.10679C10.9481 0.982161 12.8717 0.260043 14.3033 0.184347C11.5889 -0.331108 7.49088 0.203571 5.52048 2.17888C3.55008 4.15419 4.92049 6.86483 7.32048 9.0456C7.32048 9.0456 4.28208 11.9377 2.53009 14.0428C0.778085 16.1478 4.83648 19.2177 4.83648 19.2177C9.54288 15.7333 13.1681 18.5965 14.9165 21.9993C13.0576 22.5842 11.0797 22.6803 9.17303 22.2783C7.26634 21.8764 5.49504 20.9899 4.02953 19.7042C2.56402 18.4185 1.45363 16.7767 0.805163 14.937C0.1567 13.0972 -0.00800772 11.1213 0.326885 9.1994C-0.0793643 10.9063 -0.107303 12.6816 0.245033 14.4004C0.59737 16.1193 1.32143 17.74 2.36632 19.1487C3.4112 20.5574 4.75155 21.7198 6.29316 22.5543C7.83476 23.3888 9.5402 23.875 11.2896 23.9789C13.039 24.0828 14.7899 23.8018 16.4192 23.1556C18.0485 22.5094 19.5166 21.5137 20.7205 20.2386C21.9243 18.9634 22.8346 17.4398 23.3874 15.7746C23.9402 14.1095 24.122 12.3434 23.9201 10.6004ZM7.67808 11.6241L5.99808 11.5039L8.55288 9.23905L7.67808 11.6241Z" fill="url(#paint0_linear_8_9)"/>
<path fill-rule="evenodd" clip-rule="evenodd" d="M3.31185 12.314C4.48785 11.0344 5.80905 9.72832 6.49905 9.05667C4.69065 8.99899 3.06585 8.26246 3.20385 6.11533C3.32766 4.71008 3.83725 3.3665 4.67625 2.2332C3.79241 2.89922 3.00282 3.68214 2.32905 4.56056C0.362249 7.12822 0.0562485 11.1425 3.31185 12.314Z" fill="url(#paint1_linear_8_9)"/>
<path d="M33.064 17V6.78H36.298C36.9793 6.78 37.5673 6.906 38.062 7.158C38.566 7.41 38.958 7.76467 39.238 8.222C39.518 8.67 39.658 9.202 39.658 9.818C39.658 10.49 39.4853 11.0827 39.14 11.596C38.804 12.1093 38.3467 12.4733 37.768 12.688L39.798 17H37.838L36.06 12.94H34.814V17H33.064ZM34.814 11.4H36.298C36.7927 11.4 37.18 11.2647 37.46 10.994C37.74 10.7233 37.88 10.35 37.88 9.874C37.88 9.38867 37.74 9.01067 37.46 8.74C37.18 8.46 36.7927 8.32 36.298 8.32H34.814V11.4ZM40.8845 17L43.4605 6.78H45.7145L48.3045 17H46.5125L45.9525 14.522H43.2365L42.6765 17H40.8845ZM43.5585 13.094H45.6305L45.0145 10.35C44.9119 9.89267 44.8232 9.482 44.7485 9.118C44.6739 8.74467 44.6225 8.474 44.5945 8.306C44.5665 8.474 44.5152 8.74467 44.4405 9.118C44.3752 9.482 44.2865 9.888 44.1745 10.336L43.5585 13.094ZM53.0451 17.14C52.3917 17.14 51.8177 17.0187 51.3231 16.776C50.8377 16.524 50.4597 16.174 50.1891 15.726C49.9277 15.2687 49.7971 14.732 49.7971 14.116V9.664C49.7971 9.03867 49.9277 8.502 50.1891 8.054C50.4597 7.606 50.8377 7.26067 51.3231 7.018C51.8177 6.766 52.3917 6.64 53.0451 6.64C53.7077 6.64 54.2771 6.766 54.7531 7.018C55.2384 7.26067 55.6164 7.606 55.8871 8.054C56.1577 8.502 56.2931 9.03867 56.2931 9.664H54.5291C54.5291 9.17867 54.3984 8.81 54.1371 8.558C53.8851 8.306 53.5211 8.18 53.0451 8.18C52.5691 8.18 52.2004 8.306 51.9391 8.558C51.6777 8.81 51.5471 9.174 51.5471 9.65V14.116C51.5471 14.592 51.6777 14.9607 51.9391 15.222C52.2004 15.4833 52.5691 15.614 53.0451 15.614C53.5211 15.614 53.8851 15.4833 54.1371 15.222C54.3984 14.9607 54.5291 14.592 54.5291 14.116V13.08H52.7931V11.568H56.2931V14.116C56.2931 14.732 56.1577 15.2687 55.8871 15.726C55.6164 16.174 55.2384 16.524 54.7531 16.776C54.2771 17.0187 53.7077 17.14 53.0451 17.14ZM58.4156 17V6.78H64.5476V8.306H60.1376V10.966H64.0576V12.478H60.1376V15.474H64.5476V17H58.4156Z" fill="#EDEEF4"/>
<path d="M73.318 17V8.404H70.644V6.78H77.756V8.404H75.082V17H73.318ZM79.4585 17V6.78H82.6925C83.3739 6.78 83.9619 6.906 84.4565 7.158C84.9605 7.41 85.3525 7.76467 85.6325 8.222C85.9125 8.67 86.0525 9.202 86.0525 9.818C86.0525 10.49 85.8799 11.0827 85.5345 11.596C85.1985 12.1093 84.7412 12.4733 84.1625 12.688L86.1925 17H84.2325L82.4545 12.94H81.2085V17H79.4585ZM81.2085 11.4H82.6925C83.1872 11.4 83.5745 11.2647 83.8545 10.994C84.1345 10.7233 84.2745 10.35 84.2745 9.874C84.2745 9.38867 84.1345 9.01067 83.8545 8.74C83.5745 8.46 83.1872 8.32 82.6925 8.32H81.2085V11.4ZM87.2791 17L89.8551 6.78H92.1091L94.6991 17H92.9071L92.3471 14.522H89.6311L89.0711 17H87.2791ZM89.9531 13.094H92.0251L91.4091 10.35C91.3064 9.89267 91.2177 9.482 91.1431 9.118C91.0684 8.74467 91.0171 8.474 90.9891 8.306C90.9611 8.474 90.9097 8.74467 90.8351 9.118C90.7697 9.482 90.6811 9.888 90.5691 10.336L89.9531 13.094ZM96.2336 17V6.78H99.2716C99.9623 6.78 100.56 6.91067 101.064 7.172C101.577 7.43333 101.974 7.802 102.254 8.278C102.534 8.754 102.674 9.31867 102.674 9.972V13.794C102.674 14.438 102.534 15.0027 102.254 15.488C101.974 15.964 101.577 16.3373 101.064 16.608C100.56 16.8693 99.9623 17 99.2716 17H96.2336ZM97.9836 15.39H99.2716C99.7756 15.39 100.177 15.25 100.476 14.97C100.774 14.6807 100.924 14.2887 100.924 13.794V9.972C100.924 9.48667 100.774 9.104 100.476 8.824C100.177 8.53467 99.7756 8.39 99.2716 8.39H97.9836V15.39ZM104.81 17V6.78H110.942V8.306H106.532V10.966H110.452V12.478H106.532V15.474H110.942V17H104.81Z" fill="#EDEEF4"/>
<defs>
<linearGradient id="paint0_linear_8_9" x1="5" y1="1.5" x2="18.8143" y2="5.71265" gradientUnits="userSpaceOnUse">
<stop stop-color="#70FFDE"/>
<stop offset="1" stop-color="#8F7DF8"/>
</linearGradient>
<linearGradient id="paint1_linear_8_9" x1="2.02986" y1="2.86325" x2="5.73943" y2="3.36355" gradientUnits="userSpaceOnUse">
<stop stop-color="#70FFDE"/>
<stop offset="1" stop-color="#8F7DF8"/>
</linearGradient>
</defs>
</svg>
